<?xml version="1.0" encoding="utf-8"?>
<!-- Generator: Adobe Illustrator 15.1.0, SVG Export Plug-In . SVG Version: 6.00 Build 0)  -->
<!DOCTYPE svg PUBLIC "-//W3C//DTD SVG 1.1//EN" "http://www.w3.org/Graphics/SVG/1.1/DTD/svg11.dtd">
<svg version="1.1" id="Calque_1" xmlns="http://www.w3.org/2000/svg" xmlns:xlink="http://www.w3.org/1999/xlink" x="0px" y="0px"
	 width="40px" height="40px" viewBox="0 0 40 40" enable-background="new 0 0 40 40" xml:space="preserve">
<path d="M20,0C8.961,0-0.02,8.981-0.02,20.02c0,11.039,8.981,20.019,20.02,20.019s20.02-8.979,20.02-20.019
	C40.02,8.981,31.039,0,20,0z"/>
<path fill="#FFFFFF" d="M20,2.5c-9.66,0-17.52,7.86-17.52,17.52c0,9.66,7.859,17.521,17.52,17.521c9.66,0,17.52-7.859,17.52-17.521
	C37.52,10.359,29.659,2.5,20,2.5z"/>
<g>
	<polygon points="18.825,20.462 13.505,14.822 13.505,19.409 20.625,26.957 27.713,19.441 27.713,14.855 22.422,20.462 22.422,7.74 
		18.825,7.74 	"/>
	<path d="M13.987,29.448c-0.259,0-0.47,0.211-0.47,0.468v2.571c0,0.26,0.21,0.469,0.47,0.469H27.23c0.256,0,0.468-0.209,0.468-0.469
		v-2.571c0-0.257-0.212-0.468-0.468-0.468H13.987z"/>
</g>
</svg>
