<?xml version="1.0" encoding="utf-8"?>
<!-- Generator: Adobe Illustrator 15.1.0, SVG Export Plug-In . SVG Version: 6.00 Build 0)  -->
<!DOCTYPE svg PUBLIC "-//W3C//DTD SVG 1.1//EN" "http://www.w3.org/Graphics/SVG/1.1/DTD/svg11.dtd">
<svg version="1.1" id="Calque_1" xmlns="http://www.w3.org/2000/svg" xmlns:xlink="http://www.w3.org/1999/xlink" x="0px" y="0px"
	 width="40px" height="40px" viewBox="0 0 40 40" enable-background="new 0 0 40 40" xml:space="preserve">
<path fill="#323232" d="M20-0.02C8.961-0.02-0.02,8.961-0.02,20S8.961,40.02,20,40.02S40.02,31.04,40.02,20
	C40.02,8.961,31.039-0.02,20-0.02z"/>
<path fill="#323232" d="M20,2.48C10.34,2.48,2.48,10.34,2.48,20S10.339,37.521,20,37.521c9.66,0,17.52-7.86,17.52-17.521
	S29.659,2.48,20,2.48z"/>
<polygon fill="#FFFFFF" points="30.996,19.841 28.16,19.841 28.16,30.666 20.374,30.666 20.374,25.083 15.472,25.083 15.472,30.666 
	11.631,30.666 11.632,19.841 9.004,19.841 19.895,7.333 "/>
<line fill="#323232" stroke="#323232" stroke-width="0.8" stroke-miterlimit="10" x1="10.375" y1="20.75" x2="20" y2="9.542"/>
<line fill="#323232" stroke="#323232" stroke-width="0.8" stroke-miterlimit="10" x1="19.792" y1="9.208" x2="29.042" y2="20.208"/>
</svg>
