<?xml version="1.0" encoding="utf-8"?>
<!-- Generator: Adobe Illustrator 15.1.0, SVG Export Plug-In . SVG Version: 6.00 Build 0)  -->
<!DOCTYPE svg PUBLIC "-//W3C//DTD SVG 1.1 Tiny//EN" "http://www.w3.org/Graphics/SVG/1.1/DTD/svg11-tiny.dtd">
<svg version="1.1" baseProfile="tiny" id="Calque_1"
	 xmlns="http://www.w3.org/2000/svg" xmlns:xlink="http://www.w3.org/1999/xlink" x="0px" y="0px" width="48px" height="48px"
	 viewBox="0 0 48 48" xml:space="preserve">
<path d="M24.093,0.14C10.885,0.14,0.14,10.885,0.14,24.093c0,13.206,10.745,23.95,23.953,23.95c13.206,0,23.95-10.742,23.95-23.95
	S37.299,0.14,24.093,0.14z"/>
<path fill="#FFFFFF" d="M24.093,3.131c-11.558,0-20.962,9.404-20.962,20.962c0,11.557,9.403,20.962,20.962,20.962
	c11.557,0,20.959-9.403,20.959-20.962C45.052,12.534,35.649,3.131,24.093,3.131z"/>
<g>
	<polygon points="24.354,35.201 31.524,35.201 26.543,30.5 26.543,30.508 19.743,24.092 26.543,17.675 26.543,17.733 31.579,12.983 
		24.405,12.983 12.604,24.117 	"/>
</g>
</svg>
