<?xml version="1.0" encoding="utf-8"?>
<!-- Generator: Adobe Illustrator 15.1.0, SVG Export Plug-In . SVG Version: 6.00 Build 0)  -->
<!DOCTYPE svg PUBLIC "-//W3C//DTD SVG 1.1//EN" "http://www.w3.org/Graphics/SVG/1.1/DTD/svg11.dtd">
<svg version="1.1" id="Calque_1" xmlns="http://www.w3.org/2000/svg" xmlns:xlink="http://www.w3.org/1999/xlink" x="0px" y="0px"
	 width="40px" height="40px" viewBox="0 0 40 40" enable-background="new 0 0 40 40" xml:space="preserve">
<path fill="#009EB0" d="M20,0C8.961,0-0.02,8.981-0.02,20.02c0,11.039,8.981,20.019,20.02,20.019s20.02-8.979,20.02-20.019
	C40.02,8.981,31.039,0,20,0z M20,37.541c-9.661,0-17.52-7.861-17.52-17.521C2.48,10.36,10.34,2.5,20,2.5
	c9.659,0,17.52,7.859,17.52,17.52C37.52,29.682,29.66,37.541,20,37.541z"/>
<path fill="#009EB0" d="M29.118,19.109c0.495-0.012,0.946-0.163,1.397-0.319c0.469-0.162,0.805-0.521,1.096-0.958
	c-0.184,0.084-0.373,0.123-0.578,0.16c-0.747,0.131-1.488,0.089-2.234-0.12c-0.059-0.657-0.307-1.256-0.679-1.856
	c-1.115-1.803-2.544-2.63-4.289-2.673c0.569-0.186,1.149-0.233,1.696-0.619c0.27-0.19,0.274-0.565-0.199-0.479
	c-0.514,0.093-1.008,0.251-1.497,0.438c0.483-0.181,0.731-0.464,0.817-0.818c-0.748-0.01-1.172,0.475-1.715,0.778
	c0.139-0.2,0.207-0.386,0.198-0.559c-1.837,1.09-3.064,4.265-3.591,5.666c-1.171-1.151-3.292-2.379-7.821-4.089
	c-0.034,0.252-0.02,0.499,0.06,0.758c0.263,0.857,0.737,1.643,1.855,2.215c-0.494-0.049-0.955,0.036-1.396,0.2
	c0.081,0.398,0.133,0.729,0.638,1.237c0.519,0.522,1.236,0.871,2.036,1.138c-0.851-0.125-1.244,0.206-1.597,0.578
	c0.158,0.641,0.72,0.951,1.298,1.247c0.43,0.22,0.911,0.274,1.476,0.169c-0.312,0.191-0.628,0.377-0.778,0.64
	c-0.185,0.321-0.166,0.675,0.179,1.017c0.364,0.361,0.843,0.47,1.417,0.379c-3.191,3.13-7.112,1.793-8.64,0.381
	c1.13,1.556,2.588,2.677,4.33,3.49c2.348,1.099,4.499,1.125,6.724,0.938c2.374-0.198,4.67-1.106,6.805-3.013
	c1.624-1.451,2.396-3.038,2.771-4.628c0.858,0.013,1.715,0.039,2.832-1.038C30.818,19.433,29.926,19.415,29.118,19.109z"/>
</svg>
