<?xml version="1.0" encoding="utf-8"?>
<!-- Generator: Adobe Illustrator 15.1.0, SVG Export Plug-In . SVG Version: 6.00 Build 0)  -->
<!DOCTYPE svg PUBLIC "-//W3C//DTD SVG 1.1//EN" "http://www.w3.org/Graphics/SVG/1.1/DTD/svg11.dtd">
<svg version="1.1" id="Calque_1" xmlns="http://www.w3.org/2000/svg" xmlns:xlink="http://www.w3.org/1999/xlink" x="0px" y="0px"
	 width="120px" height="95px" viewBox="0 0 120 95" enable-background="new 0 0 120 95" xml:space="preserve">
<path opacity="0" fill="#010101" d="M27.808,33.551v42.898h65V33.551H27.808z M88.076,36.15L60.309,59.793L32.54,36.15H88.076z
	 M30.408,37.749l19.529,16.624L30.408,72.752V37.749z M33.036,73.85L51.93,56.068l8.379,7.133l8.377-7.133L87.58,73.85H33.036z
	 M90.209,72.752L70.68,54.373l19.529-16.624V72.752z"/>
<g>
	<polygon fill="#FFFFFF" points="88.076,36.15 32.54,36.15 60.309,59.793 	"/>
	<polygon fill="#FFFFFF" points="90.209,72.752 90.209,37.749 70.68,54.373 	"/>
	<polygon fill="#FFFFFF" points="60.309,63.201 51.93,56.068 33.036,73.85 87.58,73.85 68.687,56.068 	"/>
	<polygon fill="#FFFFFF" points="30.408,37.749 30.408,72.752 49.937,54.373 	"/>
</g>
</svg>
