<?xml version="1.0" encoding="utf-8"?>
<!-- Generator: Adobe Illustrator 15.1.0, SVG Export Plug-In . SVG Version: 6.00 Build 0)  -->
<!DOCTYPE svg PUBLIC "-//W3C//DTD SVG 1.1//EN" "http://www.w3.org/Graphics/SVG/1.1/DTD/svg11.dtd">
<svg version="1.1" id="Calque_1" xmlns="http://www.w3.org/2000/svg" xmlns:xlink="http://www.w3.org/1999/xlink" x="0px" y="0px"
	 width="248px" height="95px" viewBox="0 0 248 95" enable-background="new 0 0 248 95" xml:space="preserve">
<path fill="#FFFFFF" d="M98.045,30.778V58.38h-4.129c-0.781,0-1.416-0.63-1.416-1.416V21.347c0-1.205,0.898-2.188,2.132-2.188h18.25
	c1.229,0,2.132,0.978,2.132,2.183v2.092h28.216c0.784,0,1.415,0.633,1.415,1.411v8.01H120.56v-2.097
	c0-1.203-0.898-2.183-2.137-2.183h-18.241C98.943,28.575,98.045,29.569,98.045,30.778z"/>
<path fill="#FFFFFF" d="M154.324,41.563h-28.215v-2.092c0-1.205-0.903-2.183-2.138-2.183h-18.246c-1.233,0-2.132,0.982-2.132,2.187
	v35.621c0,0.781,0.63,1.41,1.416,1.41h4.127h45.186c0.785,0,1.416-0.629,1.416-1.41V42.974
	C155.74,42.195,155.109,41.563,154.324,41.563z"/>
</svg>
