<?xml version="1.0" encoding="utf-8"?>
<!-- Generator: Adobe Illustrator 15.1.0, SVG Export Plug-In . SVG Version: 6.00 Build 0)  -->
<!DOCTYPE svg PUBLIC "-//W3C//DTD SVG 1.1//EN" "http://www.w3.org/Graphics/SVG/1.1/DTD/svg11.dtd">
<svg version="1.1" id="Calque_1" xmlns="http://www.w3.org/2000/svg" xmlns:xlink="http://www.w3.org/1999/xlink" x="0px" y="0px"
	 width="120px" height="95px" viewBox="0 0 120 95" enable-background="new 0 0 120 95" xml:space="preserve">
<path fill="#FFFFFF" d="M58.356,17.516c3.035,5.507,5.895,11.205,8.188,17.454C65.885,27.431,63.071,21.29,58.356,17.516z
	 M83.265,19.131c-0.016-0.106-0.101-0.055-0.176,0c-1.695,3.378-4.436,5.702-8.724,6.473c-0.237-0.019-0.065,0.349-0.357,0.28
	c-2.621,0.669-4.459,2.128-5.849,4.043c-1.375,2.366-1.004,6.641,0.355,8.727c5.34-1.009,9.087-3.856,11.79-7.294
	c0.308-0.394,0.623-0.901,1.078-1.166c0.156-0.505,0.306-1.019,0.81-1.167c0.059,0.543-0.301,0.659-0.268,1.167
	c-2.058,2.925-4.537,5.408-7.743,7.2c-1.04,1.341-3.096,1.69-4.122,3.051c1.446,1.358,3.228,2.407,5.479,2.97
	c0.031-0.162,1.587-0.162,1.611,0c5.659-1.357,9.194-6.592,9.176-13.674C86.32,25.579,85.186,21.818,83.265,19.131z M70.416,49.357
	c2.417,5.068,1.033,12.149-1.351,15.912c-2.537,3.991-6.627,6.859-12.601,7.108c-0.162-0.244,0.482-0.546,0.808-0.813
	c5.297-4.262,9.565-10.09,11.43-17.899c1.165-6.549-0.098-13.476-1.974-18.34c-0.2,6.157,0.022,11.992-1.183,17.17
	c-1.942,8.444-4.661,16.578-12.49,19.698c-4.274-0.813-7.405-2.865-9.627-5.85c-2.226-2.987-3.777-7.019-3.333-11.871
	c0.417-4.549,2.193-7.864,4.947-10.517c2.681-2.577,6.034-4.587,10.795-4.587c2.229,0,4.04,0.47,5.759,1.169
	c0.337-1.915,0.885-3.621,1.617-5.135c-6.446-2.584-14.389-0.851-18.619,1.897c-4.616,2.993-8.188,7.826-9.444,13.585
	c-1.572,7.239,0.638,13.944,3.868,18.243c3.409,4.562,7.787,7.638,14.75,8.368H58c7.327-0.797,12.463-4.556,15.742-9.703
	c3.082-4.841,4.696-13.962,1.701-20.423C73.902,48.162,72.388,48.983,70.416,49.357z"/>
</svg>
