<?xml version="1.0" encoding="utf-8"?>
<!-- Generator: Adobe Illustrator 15.1.0, SVG Export Plug-In . SVG Version: 6.00 Build 0)  -->
<!DOCTYPE svg PUBLIC "-//W3C//DTD SVG 1.1//EN" "http://www.w3.org/Graphics/SVG/1.1/DTD/svg11.dtd">
<svg version="1.1" id="Calque_1" xmlns="http://www.w3.org/2000/svg" xmlns:xlink="http://www.w3.org/1999/xlink" x="0px" y="0px"
	 width="120px" height="95px" viewBox="0 0 120 95" enable-background="new 0 0 120 95" xml:space="preserve">
<g>
	<path fill="#FFFFFF" d="M40.204,21.353c-3.915,0-6.474,2.57-6.474,5.949c0,3.304,2.482,5.948,6.324,5.948h0.074
		c3.99,0,6.475-2.644,6.475-5.948C46.529,23.923,44.119,21.353,40.204,21.353z"/>
	<rect x="34.406" y="37.951" fill="#FFFFFF" width="11.444" height="34.43"/>
	<path fill="#FFFFFF" d="M73.939,37.143c-6.073,0-8.793,3.339-10.313,5.685v-4.877H52.184c0.15,3.23,0,34.43,0,34.43h11.443V53.154
		c0-1.029,0.074-2.059,0.377-2.793c0.826-2.057,2.71-4.187,5.871-4.187c4.141,0,5.798,3.157,5.798,7.785v18.42h11.442V52.639
		C87.115,42.063,81.471,37.143,73.939,37.143z"/>
</g>
</svg>
