<?xml version="1.0" encoding="utf-8"?>
<!-- Generator: Adobe Illustrator 15.1.0, SVG Export Plug-In . SVG Version: 6.00 Build 0)  -->
<!DOCTYPE svg PUBLIC "-//W3C//DTD SVG 1.1//EN" "http://www.w3.org/Graphics/SVG/1.1/DTD/svg11.dtd">
<svg version="1.1" id="Calque_1" xmlns="http://www.w3.org/2000/svg" xmlns:xlink="http://www.w3.org/1999/xlink" x="0px" y="0px"
	 width="248px" height="95px" viewBox="0 0 248 95" enable-background="new 0 0 248 95" xml:space="preserve">
<path fill="#FFFFFF" d="M158.292,48.551c1.868-0.048,3.563-0.617,5.253-1.201c1.769-0.61,3.032-1.959,4.127-3.602
	c-0.687,0.318-1.404,0.462-2.176,0.6c-2.815,0.496-5.604,0.336-8.404-0.451c-0.222-2.47-1.157-4.724-2.552-6.978
	c-4.194-6.782-9.566-9.892-16.133-10.055c2.142-0.697,4.325-0.876,6.379-2.327c1.012-0.713,1.037-2.124-0.751-1.8
	c-1.929,0.35-3.789,0.947-5.628,1.65c1.822-0.681,2.752-1.747,3.076-3.077c-2.813-0.036-4.408,1.787-6.452,2.926
	c0.524-0.75,0.783-1.451,0.75-2.101c-6.907,4.099-11.526,16.039-13.507,21.311c-4.405-4.334-12.382-8.953-29.415-15.383
	c-0.127,0.951-0.072,1.877,0.226,2.852c0.988,3.222,2.773,6.179,6.979,8.329c-1.86-0.184-3.593,0.136-5.253,0.75
	c0.305,1.499,0.5,2.742,2.401,4.653c1.951,1.963,4.646,3.273,7.654,4.278c-3.198-0.472-4.676,0.777-6.004,2.176
	c0.593,2.409,2.705,3.578,4.878,4.689c1.617,0.828,3.429,1.033,5.552,0.637c-1.171,0.724-2.361,1.417-2.926,2.403
	c-0.694,1.21-0.624,2.54,0.675,3.826c1.368,1.354,3.17,1.763,5.328,1.426c-12,11.763-26.748,6.736-32.492,1.426
	c4.248,5.852,9.736,10.068,16.284,13.131c8.83,4.132,16.92,4.229,25.288,3.527c8.925-0.748,17.563-4.165,25.588-11.331
	c6.116-5.461,9.013-11.427,10.43-17.408c3.23,0.049,6.45,0.145,10.655-3.902C164.685,49.765,161.332,49.701,158.292,48.551z"/>
</svg>
