<?xml version="1.0" encoding="utf-8"?>
<!-- Generator: Adobe Illustrator 15.1.0, SVG Export Plug-In . SVG Version: 6.00 Build 0)  -->
<!DOCTYPE svg PUBLIC "-//W3C//DTD SVG 1.1//EN" "http://www.w3.org/Graphics/SVG/1.1/DTD/svg11.dtd">
<svg version="1.1" id="Calque_1" xmlns="http://www.w3.org/2000/svg" xmlns:xlink="http://www.w3.org/1999/xlink" x="0px" y="0px"
	 width="248px" height="95px" viewBox="0 0 248 95" enable-background="new 0 0 248 95" xml:space="preserve">
<path fill="#FFFFFF" d="M111.957,56.499h15.093v-1.584h-15.093V56.499z M111.957,51.484h15.093v-1.585h-15.093V51.484z
	 M111.957,61.688h15.093v-1.582h-15.093V61.688z M138.583,23.53h-2.329l0.973-3.528h-3.174l-0.973,3.528h-5.165l0.974-3.528h-3.174
	l-0.975,3.528h-5.751l0.974-3.528h-3.173l-0.974,3.528h-5.753l0.974-3.528h-3.173l-0.974,3.528h-6.509v52.26h38.464v-8.624h9.326
	L138.583,23.53z M134.095,71.038h-28.964V31.737h2.68l0.931-3.456h5.767l-0.931,3.456h3.173l0.931-3.456h5.766l-0.931,3.456h3.174
	l0.931-3.456h5.18l-0.93,3.456h3.223L134.095,71.038L134.095,71.038z M111.957,41.627h15.093v-1.582h-15.093V41.627z
	 M111.957,46.644h15.093v-1.582h-15.093V46.644z"/>
</svg>
