<?xml version="1.0" encoding="utf-8"?>
<!-- Generator: Adobe Illustrator 15.1.0, SVG Export Plug-In . SVG Version: 6.00 Build 0)  -->
<!DOCTYPE svg PUBLIC "-//W3C//DTD SVG 1.1//EN" "http://www.w3.org/Graphics/SVG/1.1/DTD/svg11.dtd">
<svg version="1.1" id="Calque_1" xmlns="http://www.w3.org/2000/svg" xmlns:xlink="http://www.w3.org/1999/xlink" x="0px" y="0px"
	 width="248px" height="95px" viewBox="0 0 248 95" enable-background="new 0 0 248 95" xml:space="preserve">
<g>
	<g>
		<path fill="#FFFFFF" d="M159.296,25.219v41.232c0,0-11.73-3.299-20.446-1.623c-7.806,1.502-13.551,5.736-14.52,6.484v0.125
			c0,0-0.029-0.023-0.081-0.063c-0.052,0.039-0.081,0.063-0.081,0.063v-0.125c-0.968-0.748-6.713-4.982-14.517-6.484
			c-8.717-1.676-21.596,1.623-21.596,1.623V25.097c-0.753,0.113-1.552,0.234-2.411,0.362v44.418c0,0,14.036-3.611,23.583-1.773
			c9.389,1.805,15.062,7.236,15.062,7.236s5.672-5.432,15.06-7.236c9.549-1.838,23.008,1.773,23.008,1.773V25.65
			C162.357,25.65,161.186,25.452,159.296,25.219z M108.943,60.656c7.634,1.467,13.534,5.885,13.534,5.885V25.976
			c0,0-5.931-4.424-13.583-5.895c-7.746-1.49-17.864,1.454-17.864,1.454V62.1C91.03,62.1,101.18,59.162,108.943,60.656z
			 M156.315,62.248V21.682c0,0-9.275-2.943-17.018-1.453c-7.652,1.47-13.778,5.894-13.778,5.894v40.567
			c0,0,6.093-4.418,13.729-5.887C147.01,59.313,156.315,62.248,156.315,62.248z"/>
	</g>
</g>
</svg>
