<?xml version="1.0" encoding="utf-8"?>
<!-- Generator: Adobe Illustrator 15.1.0, SVG Export Plug-In . SVG Version: 6.00 Build 0)  -->
<!DOCTYPE svg PUBLIC "-//W3C//DTD SVG 1.1//EN" "http://www.w3.org/Graphics/SVG/1.1/DTD/svg11.dtd">
<svg version="1.1" id="Calque_1" xmlns="http://www.w3.org/2000/svg" xmlns:xlink="http://www.w3.org/1999/xlink" x="0px" y="0px"
	 width="50px" height="50px" viewBox="0 0 50 50" enable-background="new 0 0 50 50" xml:space="preserve">
<path fill="#009EB0" d="M25,0.081c-13.756,0-24.946,11.19-24.946,24.946c0,13.754,11.19,24.946,24.946,24.946
	c13.754,0,24.945-11.188,24.945-24.946C49.945,11.271,38.755,0.081,25,0.081z M25,46.859c-12.039,0-21.831-9.797-21.831-21.833
	c0-12.036,9.794-21.83,21.831-21.83c12.035,0,21.83,9.792,21.83,21.831C46.83,37.064,37.036,46.859,25,46.859z"/>
<g id="Layer_3">
	<path fill="#009EB0" d="M27.404,40.649h-6.466v-15.65h-3.23v-5.393h3.23v-3.239c0-4.4,1.825-7.017,7.007-7.017h4.314v5.394h-2.697
		c-2.018,0-2.15,0.754-2.15,2.161l-0.008,2.699h4.887l-0.572,5.394h-4.314V40.649z"/>
</g>
</svg>
