<?xml version="1.0" encoding="utf-8"?>
<!-- Generator: Adobe Illustrator 15.1.0, SVG Export Plug-In . SVG Version: 6.00 Build 0)  -->
<!DOCTYPE svg PUBLIC "-//W3C//DTD SVG 1.1//EN" "http://www.w3.org/Graphics/SVG/1.1/DTD/svg11.dtd">
<svg version="1.1" id="Calque_1" xmlns="http://www.w3.org/2000/svg" xmlns:xlink="http://www.w3.org/1999/xlink" x="0px" y="0px"
	 width="50px" height="50px" viewBox="0 0 50 50" enable-background="new 0 0 50 50" xml:space="preserve">
<path fill="#009EB0" d="M25,0.054C11.244,0.054,0.054,11.244,0.054,25c0,13.753,11.19,24.945,24.946,24.945
	c13.754,0,24.945-11.188,24.945-24.945C49.945,11.244,38.755,0.054,25,0.054z M31.719,24.971h-4.314v15.652h-6.466V24.972h-3.23
	v-5.393h3.23V16.34c0-4.4,1.825-7.017,7.007-7.017h4.314v5.394h-2.697c-2.018,0-2.15,0.754-2.15,2.161l-0.008,2.699h4.887
	L31.719,24.971z"/>
</svg>
