<?xml version="1.0" encoding="utf-8"?>
<!-- Generator: Adobe Illustrator 15.1.0, SVG Export Plug-In . SVG Version: 6.00 Build 0)  -->
<!DOCTYPE svg PUBLIC "-//W3C//DTD SVG 1.1//EN" "http://www.w3.org/Graphics/SVG/1.1/DTD/svg11.dtd">
<svg version="1.1" id="Calque_1" xmlns="http://www.w3.org/2000/svg" xmlns:xlink="http://www.w3.org/1999/xlink" x="0px" y="0px"
	 width="40px" height="40px" viewBox="0 0 40 40" enable-background="new 0 0 40 40" xml:space="preserve">
<rect x="-0.04" fill="#EEEEEE" width="40.04" height="40"/>
<path fill="#FFFFFF" d="M19.98-0.02C8.941-0.02-0.04,8.961-0.04,20s8.981,20.02,20.02,20.02S40,31.04,40,20
	C40,8.961,31.02-0.02,19.98-0.02z M19.98,37.521C10.319,37.521,2.46,29.66,2.46,20S10.32,2.48,19.98,2.48
	C29.64,2.48,37.5,10.339,37.5,20S29.641,37.521,19.98,37.521z"/>
<line fill="none" stroke="#FFFFFF" stroke-width="3" stroke-miterlimit="10" x1="19.98" y1="1.228" x2="19.98" y2="38.729"/>
<line fill="none" stroke="#FFFFFF" stroke-width="3" stroke-miterlimit="10" x1="1.185" y1="19.979" x2="39.011" y2="19.979"/>
<line fill="none" stroke="#EEEEEE" stroke-width="2" stroke-miterlimit="10" x1="19.088" y1="0" x2="19.126" y2="40"/>
<line fill="none" stroke="#FFFFFF" stroke-width="2" stroke-miterlimit="10" x1="21.833" y1="1.228" x2="21.833" y2="38.729"/>
</svg>
