<?xml version="1.0" encoding="utf-8"?>
<!-- Generator: Adobe Illustrator 15.1.0, SVG Export Plug-In . SVG Version: 6.00 Build 0)  -->
<!DOCTYPE svg PUBLIC "-//W3C//DTD SVG 1.1//EN" "http://www.w3.org/Graphics/SVG/1.1/DTD/svg11.dtd">
<svg version="1.1" id="Calque_1" xmlns="http://www.w3.org/2000/svg" xmlns:xlink="http://www.w3.org/1999/xlink" x="0px" y="0px"
	 width="50px" height="50px" viewBox="0 0 50 50" enable-background="new 0 0 50 50" xml:space="preserve">
<path fill="#009EB0" d="M25,0.054C11.244,0.054,0.055,11.244,0.055,25c0,13.754,11.189,24.945,24.945,24.945
	c13.754,0,24.945-11.188,24.945-24.945C49.945,11.244,38.755,0.054,25,0.054z M18.946,35.146c-1.662,0-3.009-1.363-3.009-3.041
	c0-1.682,1.347-3.043,3.009-3.043s3.009,1.361,3.009,3.043C21.955,33.783,20.607,35.146,18.946,35.146z M26.217,35.146
	c0-5.74-4.603-10.394-10.28-10.394v-4.308c8.032,0,14.542,6.583,14.542,14.702H26.217z M33.489,35.146
	c0-9.8-7.858-17.744-17.552-17.744v-4.436c12.117,0,21.939,9.93,21.939,22.18H33.489z"/>
</svg>
