<?xml version="1.0" encoding="utf-8"?>
<!-- Generator: Adobe Illustrator 15.1.0, SVG Export Plug-In . SVG Version: 6.00 Build 0)  -->
<!DOCTYPE svg PUBLIC "-//W3C//DTD SVG 1.1//EN" "http://www.w3.org/Graphics/SVG/1.1/DTD/svg11.dtd">
<svg version="1.1" id="Calque_1" xmlns="http://www.w3.org/2000/svg" xmlns:xlink="http://www.w3.org/1999/xlink" x="0px" y="0px"
	 width="50px" height="50px" viewBox="0 0 50 50" enable-background="new 0 0 50 50" xml:space="preserve">
<path fill="#009EB0" d="M25,0.081c-13.756,0-24.946,11.19-24.946,24.946c0,13.754,11.19,24.946,24.946,24.946
	c13.754,0,24.945-11.188,24.945-24.946C49.945,11.271,38.755,0.081,25,0.081z M25,46.859c-12.039,0-21.831-9.797-21.831-21.833
	c0-12.036,9.794-21.83,21.831-21.83c12.035,0,21.83,9.792,21.83,21.831C46.83,37.064,37.036,46.859,25,46.859z"/>
<ellipse fill="#009EB0" cx="18.946" cy="32.131" rx="3.009" ry="3.042"/>
<path fill="#009EB0" d="M30.479,35.173h-4.263c0-5.74-4.603-10.394-10.28-10.394l0,0v-4.308
	C23.969,20.471,30.479,27.054,30.479,35.173z"/>
<path fill="#009EB0" d="M33.489,35.173c0-9.799-7.858-17.743-17.552-17.743v-4.436c12.117,0,21.939,9.93,21.939,22.179H33.489z"/>
</svg>
