<?xml version="1.0" encoding="utf-8"?>
<!-- Generator: Adobe Illustrator 15.1.0, SVG Export Plug-In . SVG Version: 6.00 Build 0)  -->
<!DOCTYPE svg PUBLIC "-//W3C//DTD SVG 1.1//EN" "http://www.w3.org/Graphics/SVG/1.1/DTD/svg11.dtd">
<svg version="1.1" id="Calque_1" xmlns="http://www.w3.org/2000/svg" xmlns:xlink="http://www.w3.org/1999/xlink" x="0px" y="0px"
	 width="50px" height="50px" viewBox="0 0 50 50" enable-background="new 0 0 50 50" xml:space="preserve">
<path fill="#009EB0" d="M25,0.081c-13.756,0-24.946,11.19-24.946,24.946c0,13.754,11.19,24.945,24.946,24.945
	c13.754,0,24.945-11.188,24.945-24.945C49.945,11.271,38.755,0.081,25,0.081z M25,46.859c-12.039,0-21.831-9.797-21.831-21.833
	C3.169,12.99,12.963,3.196,25,3.196c12.035,0,21.83,9.792,21.83,21.831C46.83,37.064,37.036,46.859,25,46.859z"/>
<path fill="#009EB0" d="M36.362,23.892c0.616-0.014,1.179-0.204,1.741-0.397c0.583-0.202,1.003-0.649,1.365-1.193
	c-0.229,0.104-0.465,0.153-0.722,0.2c-0.93,0.163-1.854,0.111-2.783-0.15c-0.073-0.819-0.383-1.565-0.846-2.313
	c-1.39-2.248-3.17-3.277-5.346-3.332c0.711-0.231,1.433-0.29,2.114-0.771c0.337-0.236,0.342-0.704-0.247-0.597
	c-0.64,0.116-1.256,0.313-1.867,0.546c0.604-0.226,0.912-0.579,1.02-1.019c-0.933-0.013-1.46,0.591-2.137,0.97
	c0.173-0.25,0.257-0.482,0.246-0.697c-2.288,1.358-3.817,5.314-4.473,7.06c-1.459-1.434-4.102-2.964-9.745-5.095
	c-0.042,0.314-0.025,0.622,0.074,0.944c0.328,1.067,0.919,2.048,2.312,2.76c-0.615-0.062-1.189,0.044-1.739,0.249
	c0.1,0.496,0.166,0.908,0.794,1.541c0.646,0.651,1.54,1.085,2.537,1.419c-1.06-0.156-1.55,0.257-1.99,0.72
	c0.197,0.799,0.897,1.186,1.618,1.554c0.536,0.274,1.134,0.342,1.839,0.211c-0.389,0.239-0.783,0.47-0.969,0.798
	c-0.23,0.4-0.207,0.84,0.224,1.266c0.453,0.451,1.049,0.586,1.765,0.473c-3.977,3.899-8.862,2.234-10.766,0.474
	c1.408,1.938,3.225,3.337,5.396,4.35c2.925,1.369,5.606,1.402,8.378,1.17c2.957-0.247,5.819-1.379,8.479-3.755
	c2.025-1.808,2.987-3.785,3.454-5.766c1.069,0.015,2.137,0.048,3.528-1.294C38.48,24.295,37.367,24.273,36.362,23.892z"/>
</svg>
