<?xml version="1.0" encoding="utf-8"?>
<!-- Generator: Adobe Illustrator 15.1.0, SVG Export Plug-In . SVG Version: 6.00 Build 0)  -->
<!DOCTYPE svg PUBLIC "-//W3C//DTD SVG 1.1//EN" "http://www.w3.org/Graphics/SVG/1.1/DTD/svg11.dtd">
<svg version="1.1" id="Calque_1" xmlns="http://www.w3.org/2000/svg" xmlns:xlink="http://www.w3.org/1999/xlink" x="0px" y="0px"
	 width="50px" height="50px" viewBox="0 0 50 50" enable-background="new 0 0 50 50" xml:space="preserve">
<path fill="#009EB0" d="M25,0.162c-13.756,0-24.946,11.172-24.946,24.905C0.054,38.8,11.244,49.973,25,49.973
	c13.754,0,24.945-11.17,24.945-24.905C49.945,11.334,38.755,0.162,25,0.162z M19.382,28.846c-0.431-0.431-0.454-0.876-0.224-1.28
	c0.186-0.331,0.58-0.565,0.969-0.807c-0.705,0.132-1.303,0.063-1.839-0.214c-0.721-0.372-1.421-0.763-1.618-1.571
	c0.44-0.468,0.93-0.886,1.99-0.728c-0.997-0.338-1.891-0.777-2.537-1.435c-0.628-0.64-0.694-1.057-0.794-1.558
	c0.55-0.207,1.124-0.314,1.739-0.251c-1.393-0.72-1.984-1.711-2.312-2.791c-0.099-0.325-0.116-0.637-0.074-0.954
	c5.643,2.154,8.286,3.701,9.745,5.151c0.656-1.765,2.185-5.765,4.474-7.137c0.011,0.217-0.073,0.452-0.246,0.704
	c0.677-0.383,1.203-0.994,2.137-0.98c-0.107,0.445-0.416,0.802-1.02,1.03c0.61-0.235,1.227-0.434,1.867-0.552
	c0.588-0.108,0.584,0.365,0.246,0.604c-0.681,0.486-1.402,0.546-2.113,0.78c2.176,0.056,3.955,1.096,5.346,3.368
	c0.463,0.756,0.773,1.511,0.846,2.338c0.93,0.264,1.854,0.316,2.783,0.152c0.257-0.047,0.492-0.097,0.722-0.203
	c-0.362,0.55-0.782,1.002-1.364,1.207c-0.563,0.195-1.125,0.387-1.742,0.401c1.006,0.385,2.119,0.407,3.255,0.329
	c-1.392,1.357-2.459,1.324-3.528,1.309c-0.467,2.003-1.429,4.002-3.454,5.828c-2.659,2.403-5.522,3.548-8.479,3.797
	c-2.772,0.235-5.453,0.202-8.378-1.183c-2.171-1.024-3.988-2.438-5.396-4.397c1.904,1.779,6.789,3.462,10.766-0.479
	C20.431,29.438,19.835,29.302,19.382,28.846z M4.881,16.608c-1.092,2.607-1.7,5.468-1.712,8.468c0-0.003,0-0.006,0-0.01
	C3.169,22.068,3.779,19.21,4.881,16.608z"/>
</svg>
