<?xml version="1.0" encoding="utf-8"?>
<!-- Generator: Adobe Illustrator 15.1.0, SVG Export Plug-In . SVG Version: 6.00 Build 0)  -->
<!DOCTYPE svg PUBLIC "-//W3C//DTD SVG 1.1//EN" "http://www.w3.org/Graphics/SVG/1.1/DTD/svg11.dtd">
<svg version="1.1" id="Calque_1" xmlns="http://www.w3.org/2000/svg" xmlns:xlink="http://www.w3.org/1999/xlink" x="0px" y="0px"
	 width="248px" height="95px" viewBox="0 0 248 95" enable-background="new 0 0 248 95" xml:space="preserve">
<g id="_x35_151e0c8492e5103c096af88a5006e1e">
	<path id="XMLID_1_" fill="#FFFFFF" d="M80.521,52.689c4.111-1.03,9.702-2.429,19.497-2.688c-0.271-0.541-0.516-1.102-0.732-1.68
		c-3.811-0.033-15.549,0.508-19.57,1.504c-0.023,0.005-0.048,0.008-0.072,0.008c-0.133,0-0.257-0.094-0.291-0.229
		c-0.039-0.16,0.059-0.324,0.22-0.363c3.984-0.984,15.44-1.531,19.497-1.521c-0.912-2.685-1.316-5.762-1.316-9.195
		c0-6.101,1.9-8.402,4.453-11.654c-1.952-6.952,0.7-11.705,0.7-11.705s4.102-0.851,11.854,4.702c4.203-1.799,15.408-1.95,20.708-0.4
		c3.256-2.15,9.205-5.202,11.607-4.349c0.649,1.047,2.051,4.098,0.849,10.802c0.816,1.47,5.055,4.602,5.071,13.457
		c-0.07,3.264-0.409,6.021-1.036,8.354c10.107-0.085,16.055,0.748,20.15,1.502c0.161,0.034,0.27,0.189,0.242,0.352
		c-0.027,0.145-0.154,0.247-0.294,0.247c-0.021,0-0.039-0.003-0.061-0.004c-4.088-0.757-10.046-1.59-20.214-1.496
		c-0.179,0.592-0.379,1.153-0.593,1.689c3.459,0.115,12.964,0.486,20.716,2.857c0.16,0.049,0.249,0.217,0.2,0.377
		c-0.04,0.127-0.157,0.21-0.287,0.21c-0.027,0-0.059-0.002-0.086-0.013c-7.861-2.403-17.572-2.731-20.804-2.841
		c-2.81,6.177-8.574,8.483-17.896,9.441c3.02,1.9,3.888,4.285,3.888,10.737c0,6.453-0.088,7.319-0.067,8.805
		c0.033,2.435,3.6,3.599,3.469,4.386c-0.133,0.781-2.985,0.657-4.32,0.189c-3.778-1.316-3.401-4.459-3.401-4.459l-0.125-8.629
		c0,0,0.258-4.643-1.455-4.643c0,0.934,0,10.782,0,14.122c0,3.069,2.145,4,2.145,5.136c0,1.95-3.925-0.186-5.132-1.4
		c-1.844-1.852-1.634-5.775-1.589-8.88c0.041-3-0.027-9.555-0.027-9.555l-1.253,0.024c0,0,0.514,14.324-0.66,16.935
		c-1.517,3.349-6.093,4.503-6.093,2.976c0-1.026,1.127-0.699,1.751-3c0.533-1.957,0.351-16.561,0.351-16.561
		s-1.466,0.87-1.466,3.603c0,1.252-0.035,8.403-0.035,10.53c0,2.678-3.801,4.202-5.627,4.202c-0.924,0-2.076-0.046-2.076-0.537
		c0-1.237,3.477-1.964,3.477-4.541c0-2.23-0.049-7.977-0.049-7.977s-1.753,0.302-4.253,0.302c-6.304,0-8.297-4.022-9.246-6.273
		c-1.233-2.932-2.835-4.31-4.536-5.409c-1.043-0.677-1.285-1.474-0.077-1.701c5.581-1.052,7.006,6.328,10.732,7.503
		c2.659,0.839,6.078,0.478,7.777-0.624c0.226-2.256,1.85-4.202,3.203-5.229c-9.477-0.909-15.095-4.202-18.008-9.492
		c-9.914,0.237-15.538,1.646-19.662,2.674c-0.301,0.075-0.594,0.15-0.877,0.222c-0.025,0.004-0.048,0.006-0.072,0.006
		c-0.135,0-0.257-0.091-0.292-0.228c-0.04-0.159,0.059-0.323,0.221-0.363C79.931,52.836,80.222,52.764,80.521,52.689z"/>
</g>
</svg>
